<?xml version="1.0" encoding="utf-8"?>
<!-- Generator: Adobe Illustrator 17.0.0, SVG Export Plug-In . SVG Version: 6.00 Build 0)  -->
<!DOCTYPE svg PUBLIC "-//W3C//DTD SVG 1.1//EN" "http://www.w3.org/Graphics/SVG/1.1/DTD/svg11.dtd">
<svg version="1.1" xmlns="http://www.w3.org/2000/svg" xmlns:xlink="http://www.w3.org/1999/xlink" x="0px" y="0px"
	 width="248.806px" height="77.208px" viewBox="0 0 248.806 77.208" enable-background="new 0 0 248.806 77.208"
	 xml:space="preserve">
<g id="Layer_2">
</g>
<g id="Layer_1">
	<g>
		<path fill="#58595B" d="M105.6,38.082c0,4.899-1.397,8.303-4.191,10.21c0.159,1.22,1.089,1.828,2.788,1.828h2.234
			c0.528,0,0.794,0.209,0.794,0.628v1.108c0,0.381-0.237,0.651-0.711,0.812c-0.475,0.16-1.246,0.24-2.317,0.24
			c-1.539,0-2.795-0.253-3.767-0.757c-0.973-0.505-1.681-1.336-2.123-2.492c-0.96,0.196-1.934,0.295-2.917,0.295
			c-1.49,0-2.859-0.228-4.108-0.683c-1.249-0.455-2.336-1.166-3.259-2.133c-0.923-0.967-1.635-2.212-2.132-3.739
			c-0.5-1.526-0.748-3.298-0.748-5.317v-4.874c0-2.031,0.251-3.807,0.757-5.327c0.504-1.52,1.218-2.766,2.141-3.739
			c0.925-0.972,2-1.683,3.231-2.132c1.231-0.449,2.604-0.674,4.118-0.674c1.514,0,2.889,0.228,4.127,0.683
			c1.236,0.456,2.31,1.166,3.221,2.132c0.911,0.967,1.616,2.201,2.114,3.702c0.499,1.502,0.748,3.287,0.748,5.355V38.082z
			 M102.129,38.082v-4.874c0-1.539-0.157-2.881-0.471-4.025c-0.314-1.145-0.755-2.056-1.32-2.733
			c-0.566-0.677-1.263-1.182-2.087-1.514c-0.824-0.332-1.779-0.499-2.861-0.499c-4.505,0-6.758,2.924-6.758,8.771v4.874
			c0,2.044,0.27,3.72,0.813,5.031c0.541,1.311,1.312,2.262,2.309,2.854c0.996,0.59,2.207,0.885,3.637,0.885
			C99.882,46.851,102.129,43.929,102.129,38.082"/>
		<path fill="#58595B" d="M109.846,42.051V29.663c0-0.209,0.071-0.388,0.214-0.535c0.141-0.148,0.321-0.222,0.544-0.222h1.809
			c0.209,0,0.388,0.074,0.536,0.222c0.147,0.147,0.221,0.326,0.221,0.535v12.389c0,1.859,0.341,3.17,1.026,3.933
			c0.682,0.764,1.799,1.145,3.35,1.145c0.578,0,1.36-0.066,2.345-0.203c0.985-0.135,1.834-0.295,2.549-0.48V29.663
			c0-0.197,0.07-0.372,0.213-0.526c0.141-0.154,0.322-0.231,0.544-0.231h1.846c0.209,0,0.381,0.074,0.517,0.222
			c0.136,0.147,0.203,0.326,0.203,0.535v18.223c0,0.468-0.228,0.771-0.683,0.905c-3.028,0.775-5.638,1.162-7.828,1.162
			c-1.858,0-3.336-0.307-4.431-0.922c-1.098-0.615-1.865-1.498-2.309-2.649C110.068,45.23,109.846,43.788,109.846,42.051"/>
		<path fill="#58595B" d="M144.539,48.255c0,0.469-0.191,0.744-0.573,0.83c-0.984,0.284-1.978,0.499-2.98,0.646
			c-1.004,0.147-2.141,0.222-3.407,0.222c-2.942,0-5.056-0.495-6.342-1.486c-1.286-0.991-1.93-2.575-1.93-4.754V43.38
			c0-1.415,0.299-2.572,0.895-3.471c0.597-0.898,1.564-1.566,2.898-2.003c1.336-0.437,3.104-0.656,5.309-0.656h2.806v-1.514
			c0-1.575-0.302-2.668-0.903-3.277c-0.605-0.609-1.65-0.914-3.14-0.914c-1.145,0-2.126,0.077-2.944,0.231
			c-0.819,0.154-1.764,0.391-2.834,0.711c-0.26,0.086-0.473,0.08-0.638-0.019c-0.167-0.098-0.249-0.252-0.249-0.461v-1.477
			c0-0.308,0.178-0.536,0.535-0.683c0.578-0.259,1.437-0.527,2.575-0.804c1.139-0.277,2.324-0.415,3.555-0.415
			c4.911,0,7.367,2.37,7.367,7.108V48.255z M141.215,47.019v-7.35h-2.806c-1.194,0-2.149,0.065-2.862,0.194
			c-0.714,0.129-1.282,0.342-1.708,0.637c-0.424,0.295-0.726,0.668-0.903,1.117c-0.18,0.449-0.269,1.025-0.269,1.726v0.333
			c0,0.886,0.139,1.597,0.416,2.131c0.276,0.537,0.775,0.928,1.494,1.174c0.721,0.246,1.72,0.369,3.001,0.369
			c0.504,0,0.99-0.016,1.459-0.047c0.467-0.031,0.889-0.07,1.264-0.119C140.677,47.136,140.981,47.08,141.215,47.019
			 M137.578,19.268c-0.517,0-0.967,0.04-1.348,0.12c-0.382,0.08-0.856,0.212-1.421,0.397c-0.702,0.234-1.054,0.05-1.054-0.554
			v-0.757c0-0.172,0.059-0.308,0.177-0.406c0.116-0.098,0.235-0.172,0.359-0.222c0.319-0.147,0.769-0.289,1.348-0.424
			c0.578-0.135,1.169-0.203,1.773-0.203c1.108,0,2,0.221,2.677,0.664c0.677,0.443,1.017,1.145,1.017,2.105v0.185
			c0,0.283-0.044,0.56-0.13,0.831c-0.086,0.271-0.24,0.566-0.461,0.886c-0.223,0.32-0.536,0.714-0.942,1.181l-0.702,0.794
			c-0.283,0.333-0.452,0.539-0.507,0.619c-0.056,0.08-0.109,0.185-0.157,0.314c-0.05,0.129-0.074,0.286-0.074,0.471v0.775
			c0,0.173-0.081,0.332-0.239,0.48c-0.16,0.148-0.369,0.222-0.628,0.222h-0.684c-0.258,0-0.464-0.077-0.618-0.231
			c-0.154-0.154-0.23-0.311-0.23-0.471v-0.775c0-0.37,0.034-0.686,0.101-0.951c0.068-0.265,0.184-0.526,0.352-0.785
			c0.165-0.258,0.389-0.541,0.673-0.849l0.72-0.794c0.357-0.406,0.591-0.723,0.702-0.951c0.11-0.227,0.166-0.483,0.166-0.766v-0.185
			C138.384,19.507,138.095,19.268,137.578,19.268"/>
		<path fill="#58595B" d="M164.627,36.531v12.407c0,0.21-0.081,0.388-0.239,0.536c-0.16,0.147-0.332,0.221-0.518,0.221h-1.809
			c-0.21,0-0.389-0.073-0.536-0.221c-0.148-0.149-0.222-0.326-0.222-0.536V36.531c0-1.256-0.15-2.253-0.451-2.991
			c-0.304-0.739-0.776-1.268-1.424-1.588c-0.645-0.32-1.485-0.48-2.52-0.48c-1.551,0-3.175,0.228-4.874,0.683v16.783
			c0,0.198-0.077,0.373-0.23,0.526c-0.155,0.154-0.331,0.23-0.527,0.23h-1.846c-0.186,0-0.352-0.073-0.499-0.221
			c-0.148-0.149-0.222-0.326-0.222-0.536V30.715c0-0.467,0.227-0.769,0.684-0.905c3.064-0.787,5.668-1.181,7.809-1.181
			c1.415,0,2.613,0.175,3.59,0.526c0.98,0.351,1.743,0.858,2.29,1.523c0.548,0.665,0.942,1.474,1.183,2.428
			C164.507,34.06,164.627,35.202,164.627,36.531"/>
		<path fill="#58595B" d="M176.075,54.422c1.229,0,2.184-0.13,2.861-0.388c0.677-0.259,1.169-0.729,1.477-1.412
			c0.307-0.685,0.462-1.659,0.462-2.928v-0.258c-0.493,0.123-1.176,0.24-2.049,0.35c-0.875,0.111-1.602,0.168-2.179,0.168
			c-5.626,0-8.438-3.097-8.438-9.288v-2.77c0-2.105,0.307-3.84,0.923-5.207c0.615-1.366,1.551-2.384,2.808-3.055
			c1.255-0.671,2.824-1.007,4.708-1.007c1.981,0,4.233,0.29,6.757,0.868c0.319,0.062,0.532,0.151,0.637,0.268
			c0.105,0.117,0.157,0.317,0.157,0.6v19.331c0,2.709-0.681,4.625-2.04,5.752c-1.36,1.127-3.388,1.689-6.083,1.689
			c-1.318,0-2.539-0.154-3.666-0.462c-1.125-0.308-1.973-0.627-2.538-0.96c-0.358-0.221-0.536-0.512-0.536-0.868v-1.255
			c0-0.223,0.08-0.389,0.24-0.499c0.16-0.11,0.37-0.11,0.628,0c1.28,0.493,2.28,0.837,3.001,1.034
			C173.923,54.324,174.88,54.422,176.075,54.422 M180.875,46.742v-14.9c-1.49-0.271-2.899-0.406-4.228-0.406
			c-0.936,0-1.733,0.12-2.393,0.36c-0.658,0.24-1.184,0.618-1.578,1.135c-0.393,0.517-0.683,1.182-0.868,1.994
			c-0.184,0.813-0.276,1.804-0.276,2.973v2.77c0,1.6,0.188,2.874,0.564,3.821c0.375,0.948,0.938,1.632,1.689,2.05
			c0.75,0.418,1.705,0.627,2.862,0.627c0.602,0,1.316-0.039,2.142-0.119C179.613,46.966,180.308,46.865,180.875,46.742"/>
		<path fill="#58595B" d="M193.456,38.285V38.23v-5.207c0-4.222,0.95-7.225,2.854-9.01c1.9-1.785,4.316-2.677,7.247-2.677
			c0.774,0,1.571,0.086,2.391,0.258c0.818,0.173,1.575,0.382,2.27,0.628c0.695,0.246,1.247,0.48,1.652,0.701
			c0.258,0.148,0.389,0.351,0.389,0.61v1.846c0,0.16-0.063,0.274-0.186,0.342c-0.123,0.068-0.277,0.071-0.461,0.009
			c-0.665-0.259-1.619-0.539-2.862-0.84c-1.243-0.301-2.308-0.453-3.193-0.453c-4.433,0-6.648,2.862-6.648,8.586v5.207
			c0,2.092,0.277,3.775,0.831,5.049c0.553,1.274,1.322,2.188,2.308,2.742c0.984,0.554,2.153,0.831,3.509,0.831
			c1.538,0,3.556-0.425,6.056-1.274c0.208-0.074,0.369-0.08,0.48-0.018c0.109,0.061,0.166,0.178,0.166,0.35v1.865
			c0,0.247-0.131,0.443-0.389,0.591c-0.405,0.222-0.957,0.456-1.652,0.702c-0.695,0.246-1.452,0.455-2.27,0.627
			c-0.819,0.172-1.616,0.259-2.391,0.259c-2.931,0-5.347-0.892-7.247-2.677C194.406,45.492,193.456,42.495,193.456,38.285"/>
		<path fill="#58595B" d="M228.204,48.255c0,0.467-0.19,0.744-0.571,0.83c-0.986,0.284-1.979,0.499-2.982,0.646
			c-1.003,0.147-2.139,0.222-3.407,0.222c-2.941,0-5.056-0.495-6.341-1.486c-1.287-0.991-1.93-2.575-1.93-4.754V43.38
			c0-1.415,0.298-2.572,0.896-3.471c0.597-0.898,1.563-1.566,2.898-2.003c1.336-0.437,3.104-0.656,5.308-0.656h2.808v-1.514
			c0-1.575-0.304-2.668-0.905-3.277c-0.602-0.609-1.65-0.914-3.139-0.914c-1.145,0-2.126,0.077-2.944,0.231
			c-0.819,0.154-1.764,0.391-2.835,0.711c-0.258,0.086-0.471,0.08-0.636-0.019c-0.168-0.098-0.25-0.252-0.25-0.461v-1.477
			c0-0.308,0.178-0.536,0.535-0.684c0.578-0.258,1.438-0.526,2.574-0.803c1.14-0.277,2.324-0.415,3.556-0.415
			c4.911,0,7.366,2.37,7.366,7.108V48.255z M224.882,47.019v-7.35h-2.808c-1.193,0-2.148,0.065-2.861,0.194
			c-0.714,0.129-1.282,0.342-1.708,0.637c-0.425,0.295-0.727,0.668-0.904,1.117c-0.178,0.449-0.268,1.025-0.268,1.726v0.333
			c0,0.886,0.138,1.597,0.416,2.131c0.275,0.537,0.775,0.928,1.494,1.174c0.722,0.246,1.721,0.369,3,0.369
			c0.506,0,0.991-0.016,1.459-0.047c0.468-0.031,0.89-0.07,1.265-0.119C224.343,47.136,224.646,47.08,224.882,47.019
			 M226.728,20.504c0,0.099-0.05,0.197-0.149,0.295l-4.282,4.764c-0.223,0.246-0.376,0.403-0.462,0.471
			c-0.086,0.068-0.222,0.101-0.406,0.101h-2.049c-0.223,0-0.333-0.086-0.333-0.258c0-0.16,0.049-0.289,0.148-0.388l3.711-4.69
			c0.196-0.245,0.344-0.399,0.443-0.461c0.098-0.061,0.252-0.092,0.462-0.092h2.492C226.586,20.247,226.728,20.333,226.728,20.504"
			/>
		<path fill="#58595B" d="M248.625,40.741c0,2.831-0.724,5.075-2.17,6.729c-1.446,1.656-3.529,2.483-6.249,2.483
			c-2.708,0-4.785-0.827-6.232-2.483c-1.446-1.654-2.169-3.898-2.169-6.729v-2.88c0-2.844,0.723-5.093,2.169-6.749
			c1.447-1.655,3.524-2.483,6.232-2.483c2.72,0,4.803,0.828,6.249,2.483c1.446,1.656,2.17,3.905,2.17,6.749V40.741z M245.302,40.741
			v-2.88c0-1.317-0.182-2.447-0.545-3.388c-0.363-0.942-0.923-1.665-1.679-2.17c-0.759-0.504-1.716-0.757-2.872-0.757
			c-1.711,0-2.985,0.551-3.822,1.653c-0.838,1.102-1.255,2.655-1.255,4.662v2.88c0,4.21,1.69,6.313,5.077,6.313
			c1.71,0,2.987-0.547,3.832-1.642C244.88,44.317,245.302,42.759,245.302,40.741"/>
		<path fill="#808184" d="M196.884,56.027l-0.826,0.635c-0.456-0.594-1.005-1.044-1.644-1.35c-0.638-0.307-1.341-0.461-2.104-0.461
			c-0.836,0-1.61,0.201-2.323,0.603c-0.713,0.401-1.265,0.94-1.657,1.618c-0.393,0.677-0.588,1.438-0.588,2.283
			c0,1.278,0.438,2.346,1.315,3.201c0.876,0.855,1.981,1.282,3.316,1.282c1.468,0,2.696-0.575,3.685-1.726l0.826,0.627
			c-0.522,0.666-1.174,1.18-1.956,1.544c-0.781,0.362-1.654,0.545-2.618,0.545c-1.834,0-3.281-0.61-4.341-1.831
			c-0.889-1.031-1.333-2.276-1.333-3.734c0-1.535,0.538-2.826,1.614-3.873c1.077-1.048,2.424-1.572,4.044-1.572
			c0.979,0,1.863,0.194,2.651,0.582C195.734,54.787,196.38,55.33,196.884,56.027"/>
		<path fill="#808184" d="M202.493,56.613c1.193,0,2.184,0.432,2.969,1.297c0.714,0.787,1.071,1.722,1.071,2.799
			c0,1.084-0.377,2.031-1.133,2.841c-0.754,0.81-1.724,1.215-2.907,1.215c-1.19,0-2.162-0.405-2.917-1.215
			c-0.754-0.81-1.132-1.757-1.132-2.841c0-1.072,0.356-2.004,1.07-2.793C200.3,57.046,201.293,56.613,202.493,56.613
			 M202.489,57.588c-0.83,0-1.543,0.306-2.14,0.919c-0.595,0.613-0.893,1.354-0.893,2.224c0,0.56,0.136,1.083,0.407,1.568
			c0.271,0.483,0.639,0.858,1.101,1.122c0.463,0.264,0.971,0.396,1.524,0.396c0.553,0,1.06-0.132,1.523-0.396
			c0.463-0.264,0.83-0.639,1.101-1.122c0.272-0.485,0.408-1.009,0.408-1.568c0-0.87-0.3-1.61-0.896-2.224
			C204.024,57.894,203.313,57.588,202.489,57.588 M202.021,54.33h0.99l2.067,1.832h-1.282l-1.254-1.084l-1.308,1.084h-1.329
			L202.021,54.33z"/>
		<path fill="#808184" d="M215.903,58.422l-0.791,0.491c-0.683-0.907-1.614-1.361-2.797-1.361c-0.943,0-1.728,0.304-2.352,0.912
			c-0.625,0.607-0.938,1.345-0.938,2.213c0,0.564,0.145,1.097,0.432,1.595c0.287,0.498,0.681,0.886,1.182,1.16
			c0.5,0.274,1.063,0.413,1.683,0.413c1.14,0,2.069-0.454,2.79-1.361l0.791,0.52c-0.369,0.559-0.867,0.992-1.492,1.3
			c-0.625,0.308-1.336,0.461-2.135,0.461c-1.226,0-2.242-0.39-3.05-1.168c-0.808-0.779-1.212-1.728-1.212-2.845
			c0-0.75,0.19-1.446,0.567-2.09c0.377-0.645,0.896-1.148,1.557-1.508c0.661-0.361,1.399-0.541,2.216-0.541
			c0.515,0,1.009,0.077,1.486,0.234c0.477,0.156,0.883,0.361,1.215,0.613C215.389,57.712,215.671,58.033,215.903,58.422"/>
		<path fill="#808184" d="M229.786,56.027l-0.827,0.635c-0.456-0.594-1.004-1.044-1.644-1.35c-0.638-0.307-1.341-0.461-2.104-0.461
			c-0.837,0-1.61,0.201-2.323,0.603c-0.713,0.401-1.265,0.94-1.657,1.618c-0.393,0.677-0.588,1.438-0.588,2.283
			c0,1.278,0.439,2.346,1.316,3.201c0.876,0.855,1.981,1.282,3.316,1.282c1.469,0,2.696-0.575,3.685-1.726l0.827,0.627
			c-0.523,0.666-1.175,1.18-1.957,1.544c-0.781,0.362-1.654,0.545-2.618,0.545c-1.834,0-3.281-0.61-4.34-1.831
			c-0.89-1.031-1.333-2.276-1.333-3.734c0-1.535,0.538-2.826,1.613-3.873c1.077-1.048,2.425-1.572,4.044-1.572
			c0.98,0,1.862,0.194,2.651,0.582C228.636,54.787,229.282,55.33,229.786,56.027"/>
		<path fill="#808184" d="M235.396,56.613c1.193,0,2.183,0.432,2.969,1.297c0.714,0.787,1.07,1.722,1.07,2.799
			c0,1.084-0.377,2.031-1.132,2.841c-0.754,0.81-1.724,1.215-2.907,1.215c-1.191,0-2.162-0.405-2.918-1.215
			c-0.754-0.81-1.131-1.757-1.131-2.841c0-1.072,0.356-2.004,1.07-2.793C233.202,57.046,234.195,56.613,235.396,56.613
			 M235.391,57.588c-0.829,0-1.543,0.306-2.139,0.919c-0.595,0.613-0.893,1.354-0.893,2.224c0,0.56,0.136,1.083,0.406,1.568
			c0.272,0.483,0.64,0.858,1.102,1.122c0.463,0.264,0.971,0.396,1.523,0.396c0.554,0,1.061-0.132,1.523-0.396
			c0.463-0.264,0.83-0.639,1.101-1.122c0.273-0.485,0.408-1.009,0.408-1.568c0-0.87-0.299-1.61-0.896-2.224
			C236.927,57.894,236.216,57.588,235.391,57.588 M234.924,54.33h0.99l2.067,1.832h-1.282l-1.254-1.084l-1.308,1.084h-1.33
			L234.924,54.33z"/>
		<path fill="#808184" d="M248.806,58.422l-0.791,0.491c-0.683-0.907-1.614-1.361-2.797-1.361c-0.943,0-1.729,0.304-2.352,0.912
			c-0.625,0.607-0.938,1.345-0.938,2.213c0,0.564,0.145,1.097,0.432,1.595c0.286,0.498,0.681,0.886,1.182,1.16
			c0.501,0.274,1.062,0.413,1.683,0.413c1.14,0,2.069-0.454,2.79-1.361l0.791,0.52c-0.37,0.559-0.868,0.992-1.493,1.3
			c-0.625,0.308-1.336,0.461-2.134,0.461c-1.226,0-2.243-0.39-3.05-1.168c-0.808-0.779-1.212-1.728-1.212-2.845
			c0-0.75,0.189-1.446,0.567-2.09c0.377-0.645,0.896-1.148,1.557-1.508c0.661-0.361,1.399-0.541,2.216-0.541
			c0.514,0,1.009,0.077,1.486,0.234c0.478,0.156,0.883,0.361,1.215,0.613C248.291,57.712,248.573,58.033,248.806,58.422"/>
		<polygon fill="#808184" points="239.628,52.908 241.16,52.908 239.058,55.103 238.074,55.103 		"/>
		<polygon fill="#808184" points="206.958,52.908 208.49,52.908 206.387,55.103 205.404,55.103 		"/>
		<g>
			<defs>
				<path id="SVGID_1_" d="M21.029,35.551c0,7.982,6.473,14.476,14.443,14.519L34.93,48.5c-6.867-0.327-12.357-6-12.357-12.948
					c0-7.156,5.821-12.979,12.979-12.979c7.038,0,12.773,5.634,12.962,12.627l1.554,0.483c0.001-0.044,0.006-0.087,0.006-0.131
					c0-8.007-6.515-14.521-14.521-14.521C27.543,21.03,21.029,27.544,21.029,35.551"/>
			</defs>
			<clipPath id="SVGID_2_">
				<use xlink:href="#SVGID_1_"  overflow="visible"/>
			</clipPath>
			
				<linearGradient id="SVGID_3_" gradientUnits="userSpaceOnUse" x1="-300.3799" y1="339.1624" x2="-299.3799" y2="339.1624" gradientTransform="matrix(29.0436 0 0 -29.0436 8745.1426 9886.0459)">
				<stop  offset="0" style="stop-color:#F48120"/>
				<stop  offset="1" style="stop-color:#58A947"/>
			</linearGradient>
			<rect x="21.029" y="21.03" clip-path="url(#SVGID_2_)" fill="url(#SVGID_3_)" width="29.043" height="29.04"/>
		</g>
		<g>
			<defs>
				<path id="SVGID_4_" d="M0,35.551c0,19.603,15.948,35.551,35.551,35.551c2.385,0,4.714-0.239,6.967-0.688l-0.51-1.476
					c-2.092,0.403-4.249,0.622-6.457,0.622c-18.753,0-34.009-15.256-34.009-34.009c0-18.752,15.256-34.009,34.009-34.009
					c18.752,0,34.009,15.257,34.009,34.009c0,2.054-0.193,4.062-0.544,6.016l1.484,0.462c0.388-2.102,0.602-4.264,0.602-6.477
					C71.102,15.949,55.154,0,35.551,0C15.948,0,0,15.949,0,35.551"/>
			</defs>
			<clipPath id="SVGID_5_">
				<use xlink:href="#SVGID_4_"  overflow="visible"/>
			</clipPath>
			
				<linearGradient id="SVGID_6_" gradientUnits="userSpaceOnUse" x1="-298.1564" y1="341.1532" x2="-297.1564" y2="341.1532" gradientTransform="matrix(71.1021 0 0 -71.1021 21199.5469 24292.2637)">
				<stop  offset="0" style="stop-color:#F48120"/>
				<stop  offset="1" style="stop-color:#58A947"/>
			</linearGradient>
			<rect x="0" y="0" clip-path="url(#SVGID_5_)" fill="url(#SVGID_6_)" width="71.102" height="71.102"/>
		</g>
		<g>
			<defs>
				<path id="SVGID_7_" d="M10.456,35.551c0,13.838,11.257,25.096,25.095,25.096c1.188,0,2.355-0.088,3.5-0.249l-0.516-1.488
					c-0.978,0.123-1.974,0.195-2.984,0.195c-12.987,0-23.553-10.566-23.553-23.554s10.565-23.553,23.553-23.553
					c12.988,0,23.554,10.566,23.554,23.553c0,0.976-0.066,1.936-0.183,2.881l1.495,0.465c0.146-1.096,0.229-2.211,0.229-3.346
					c0-13.837-11.258-25.095-25.096-25.095S10.456,21.714,10.456,35.551"/>
			</defs>
			<clipPath id="SVGID_8_">
				<use xlink:href="#SVGID_7_"  overflow="visible"/>
			</clipPath>
			
				<linearGradient id="SVGID_9_" gradientUnits="userSpaceOnUse" x1="-298.7986" y1="340.578" x2="-297.7986" y2="340.578" gradientTransform="matrix(50.1911 0 0 -50.1911 15007.4844 17129.5332)">
				<stop  offset="0" style="stop-color:#F48120"/>
				<stop  offset="1" style="stop-color:#58A947"/>
			</linearGradient>
			<rect x="10.456" y="10.456" clip-path="url(#SVGID_8_)" fill="url(#SVGID_9_)" width="50.19" height="50.191"/>
		</g>
		<g>
			<defs>
				<polygon id="SVGID_10_" points="48.425,70.953 57.29,62.087 71.707,76.505 76.859,71.353 62.442,56.935 71.306,48.072 
					35.295,34.941 				"/>
			</defs>
			<clipPath id="SVGID_11_">
				<use xlink:href="#SVGID_10_"  overflow="visible"/>
			</clipPath>
			
				<linearGradient id="SVGID_12_" gradientUnits="userSpaceOnUse" x1="-296.318" y1="338.4544" x2="-295.3477" y2="338.4544" gradientTransform="matrix(22.9226 30.5635 30.5635 -22.9226 -3517.8784 16856.0293)">
				<stop  offset="0" style="stop-color:#8EB63E"/>
				<stop  offset="1" style="stop-color:#55AD4C"/>
			</linearGradient>
			<polygon clip-path="url(#SVGID_11_)" fill="url(#SVGID_12_)" points="61.896,14.99 79.127,71.102 71.539,77.208 0.544,59.86 			
				"/>
		</g>
	</g>
</g>
</svg>
